<?xml version="1.0" encoding="UTF-8"?>
<svg version="1.1" xmlns="http://www.w3.org/2000/svg" width="681" height="683">
<path d="M0 0 C224.73 0 449.46 0 681 0 C681 225.39 681 450.78 681 683 C456.27 683 231.54 683 0 683 C0 457.61 0 232.22 0 0 Z " fill="#8F8373" transform="translate(0,0)"/>
<path d="M0 0 C224.73 0 449.46 0 681 0 C681 225.39 681 450.78 681 683 C456.27 683 231.54 683 0 683 C0 457.61 0 232.22 0 0 Z M13 16 C9.96637238 20.51216765 10.72290835 26.41755632 10.74552441 31.65606594 C10.74231793 32.74735024 10.73911145 33.83863453 10.73580781 34.96298805 C10.72746043 38.64525406 10.73344869 42.32735942 10.73930359 46.0096283 C10.73628507 48.66604398 10.73247829 51.32244793 10.72771102 53.97885996 C10.71893689 59.76759783 10.71764121 65.55630032 10.72121429 71.34504318 C10.72651358 79.95303478 10.72043383 88.56099203 10.71213136 97.1689799 C10.69687388 113.43569965 10.69518807 129.70240385 10.69765439 145.96912926 C10.69948551 158.52807725 10.69773125 171.08702013 10.69342995 183.64596748 C10.69282755 185.44891986 10.69222635 187.25187223 10.69162634 189.05482461 C10.69071911 191.77154116 10.68981045 194.4882577 10.68889399 197.20497424 C10.68046184 222.47041763 10.6761306 247.73585908 10.68030071 273.00130367 C10.68045709 273.95418429 10.68061346 274.90706491 10.68077458 275.88882069 C10.68158039 280.71863653 10.68242616 285.54845235 10.68328788 290.37826817 C10.68345897 291.33752244 10.68363006 292.2967767 10.68380633 293.28509927 C10.68415298 295.22494497 10.68450151 297.16479067 10.68485192 299.10463637 C10.69021024 329.29494816 10.6822766 359.48523076 10.66381836 389.67553711 C10.64311517 423.57756107 10.63237239 457.47956694 10.63639385 491.38159758 C10.63678921 494.99447063 10.63715075 498.60734369 10.63749123 502.22021675 C10.63758196 503.10982862 10.63767269 503.99944049 10.63776617 504.9160103 C10.63893346 518.36143834 10.63227386 531.80684816 10.62167931 545.25227165 C10.60964698 560.53816208 10.60804562 575.82401227 10.62046947 591.10990327 C10.62711436 599.66923932 10.62542963 608.22847925 10.61188096 616.78780767 C10.60366499 622.50070468 10.60629666 628.21352934 10.61785623 633.92642042 C10.62414113 637.18441955 10.62400031 640.4421921 10.61399289 643.70018756 C10.60396664 647.20633393 10.61224077 650.7119677 10.62526989 654.21809292 C10.61796054 655.23410006 10.6106512 656.25010721 10.60312036 657.29690245 C10.64376913 662.53787479 10.79538248 666.60950908 14 671 C18.51216765 674.03362762 24.41755632 673.27709165 29.65606594 673.25447559 C31.29299238 673.25928531 31.29299238 673.25928531 32.96298805 673.26419219 C36.64525406 673.27253957 40.32735942 673.26655131 44.0096283 673.26069641 C46.66604398 673.26371493 49.32244793 673.26752171 51.97885996 673.27228898 C57.76759783 673.28106311 63.55630032 673.28235879 69.34504318 673.27878571 C77.95303478 673.27348642 86.56099203 673.27956617 95.1689799 673.28786864 C111.43569965 673.30312612 127.70240385 673.30481193 143.96912926 673.30234561 C156.52807725 673.30051449 169.08702013 673.30226875 181.64596748 673.30657005 C183.44891986 673.30717245 185.25187223 673.30777365 187.05482461 673.30837366 C189.77154116 673.30928089 192.4882577 673.31018955 195.20497424 673.31110601 C220.47041763 673.31953816 245.73585908 673.3238694 271.00130367 673.31969929 C271.95418429 673.31954291 272.90706491 673.31938654 273.88882069 673.31922542 C278.71863653 673.31841961 283.54845235 673.31757384 288.37826817 673.31671212 C289.33752244 673.31654103 290.2967767 673.31636994 291.28509927 673.31619367 C293.22494497 673.31584702 295.16479067 673.31549849 297.10463637 673.31514808 C327.29494816 673.30978976 357.48523076 673.3177234 387.67553711 673.33618164 C421.57756107 673.35688483 455.47956694 673.36762761 489.38159758 673.36360615 C492.99447063 673.36321079 496.60734369 673.36284925 500.22021675 673.36250877 C501.10982862 673.36241804 501.99944049 673.36232731 502.9160103 673.36223383 C516.36143834 673.36106654 529.80684816 673.36772614 543.25227165 673.37832069 C558.53816208 673.39035302 573.82401227 673.39195438 589.10990327 673.37953053 C597.66923932 673.37288564 606.22847925 673.37457037 614.78780767 673.38811904 C620.50070468 673.39633501 626.21352934 673.39370334 631.92642042 673.38214377 C635.18441955 673.37585887 638.4421921 673.37599969 641.70018756 673.38600711 C645.20633393 673.39603336 648.7119677 673.38775923 652.21809292 673.37473011 C653.74210364 673.38569413 653.74210364 673.38569413 655.29690245 673.39687964 C660.53787479 673.35623087 664.60950908 673.20461752 669 670 C672.03362762 665.48783235 671.27709165 659.58244368 671.25447559 654.34393406 C671.25768207 653.25264976 671.26088855 652.16136547 671.26419219 651.03701195 C671.27253957 647.35474594 671.26655131 643.67264058 671.26069641 639.9903717 C671.26371493 637.33395602 671.26752171 634.67755207 671.27228898 632.02114004 C671.28106311 626.23240217 671.28235879 620.44369968 671.27878571 614.65495682 C671.27348642 606.04696522 671.27956617 597.43900797 671.28786864 588.8310201 C671.30312612 572.56430035 671.30481193 556.29759615 671.30234561 540.03087074 C671.30051449 527.47192275 671.30226875 514.91297987 671.30657005 502.35403252 C671.30717245 500.55108014 671.30777365 498.74812777 671.30837366 496.94517539 C671.30928089 494.22845884 671.31018955 491.5117423 671.31110601 488.79502576 C671.31953816 463.52958237 671.3238694 438.26414092 671.31969929 412.99869633 C671.31954291 412.04581571 671.31938654 411.09293509 671.31922542 410.11117931 C671.31841961 405.28136347 671.31757384 400.45154765 671.31671212 395.62173183 C671.31654103 394.66247756 671.31636994 393.7032233 671.31619367 392.71490073 C671.31584702 390.77505503 671.31549849 388.83520933 671.31514808 386.89536363 C671.30978976 356.70505184 671.3177234 326.51476924 671.33618164 296.32446289 C671.35688483 262.42243893 671.36762761 228.52043306 671.36360615 194.61840242 C671.36321079 191.00552937 671.36284925 187.39265631 671.36250877 183.77978325 C671.36241804 182.89017138 671.36232731 182.00055951 671.36223383 181.0839897 C671.36106654 167.63856166 671.36772614 154.19315184 671.37832069 140.74772835 C671.39035302 125.46183792 671.39195438 110.17598773 671.37953053 94.89009673 C671.37288564 86.33076068 671.37457037 77.77152075 671.38811904 69.21219233 C671.39633501 63.49929532 671.39370334 57.78647066 671.38214377 52.07357958 C671.37585887 48.81558045 671.37599969 45.5578079 671.38600711 42.29981244 C671.39603336 38.79366607 671.38775923 35.2880323 671.37473011 31.78190708 C671.38569413 30.25789636 671.38569413 30.25789636 671.39687964 28.70309755 C671.35623087 23.46212521 671.20461752 19.39049092 668 15 C663.48783235 11.96637238 657.58244368 12.72290835 652.34393406 12.74552441 C651.25264976 12.74231793 650.16136547 12.73911145 649.03701195 12.73580781 C645.35474594 12.72746043 641.67264058 12.73344869 637.9903717 12.73930359 C635.33395602 12.73628507 632.67755207 12.73247829 630.02114004 12.72771102 C624.23240217 12.71893689 618.44369968 12.71764121 612.65495682 12.72121429 C604.04696522 12.72651358 595.43900797 12.72043383 586.8310201 12.71213136 C570.56430035 12.69687388 554.29759615 12.69518807 538.03087074 12.69765439 C525.47192275 12.69948551 512.91297987 12.69773125 500.35403252 12.69342995 C498.55108014 12.69282755 496.74812777 12.69222635 494.94517539 12.69162634 C492.22845884 12.69071911 489.5117423 12.68981045 486.79502576 12.68889399 C461.52958237 12.68046184 436.26414092 12.6761306 410.99869633 12.68030071 C410.04581571 12.68045709 409.09293509 12.68061346 408.11117931 12.68077458 C403.28136347 12.68158039 398.45154765 12.68242616 393.62173183 12.68328788 C392.66247756 12.68345897 391.7032233 12.68363006 390.71490073 12.68380633 C388.77505503 12.68415298 386.83520933 12.68450151 384.89536363 12.68485192 C354.70505184 12.69021024 324.51476924 12.6822766 294.32446289 12.66381836 C260.42243893 12.64311517 226.52043306 12.63237239 192.61840242 12.63639385 C189.00552937 12.63678921 185.39265631 12.63715075 181.77978325 12.63749123 C180.89017138 12.63758196 180.00055951 12.63767269 179.0839897 12.63776617 C165.63856166 12.63893346 152.19315184 12.63227386 138.74772835 12.62167931 C123.46183792 12.60964698 108.17598773 12.60804562 92.89009673 12.62046947 C84.33076068 12.62711436 75.77152075 12.62542963 67.21219233 12.61188096 C61.49929532 12.60366499 55.78647066 12.60629666 50.07357958 12.61785623 C46.81558045 12.62414113 43.5578079 12.62400031 40.29981244 12.61399289 C36.79366607 12.60396664 33.2880323 12.61224077 29.78190708 12.62526989 C28.25789636 12.61430587 28.25789636 12.61430587 26.70309755 12.60312036 C21.46212521 12.64376913 17.39049092 12.79538248 13 16 Z " fill="#4D4D4D" transform="translate(0,0)"/>
<path d="M0 0 C50.49 0 100.98 0 153 0 C153 50.49 153 100.98 153 153 C102.51 153 52.02 153 0 153 C0 102.51 0 52.02 0 0 Z " fill="#F6EADC" transform="translate(508,510)"/>
<path d="M0 0 C50.49 0 100.98 0 153 0 C153 50.49 153 100.98 153 153 C102.51 153 52.02 153 0 153 C0 102.51 0 52.02 0 0 Z " fill="#F6EADC" transform="translate(183,510)"/>
<path d="M0 0 C50.49 0 100.98 0 153 0 C153 50.49 153 100.98 153 153 C102.51 153 52.02 153 0 153 C0 102.51 0 52.02 0 0 Z " fill="#F2B179" transform="translate(508,185)"/>
<path d="M0 0 C50.49 0 100.98 0 153 0 C153 50.49 153 100.98 153 153 C102.51 153 52.02 153 0 153 C0 102.51 0 52.02 0 0 Z " fill="#F2B179" transform="translate(183,185)"/>
<path d="M0 0 C50.16 0 100.32 0 152 0 C152 50.49 152 100.98 152 153 C101.84 153 51.68 153 0 153 C0 102.51 0 52.02 0 0 Z " fill="#F2B179" transform="translate(346,510)"/>
<path d="M0 0 C50.16 0 100.32 0 152 0 C152 50.49 152 100.98 152 153 C101.84 153 51.68 153 0 153 C0 102.51 0 52.02 0 0 Z " fill="#F2B179" transform="translate(21,510)"/>
<path d="M0 0 C50.49 0 100.98 0 153 0 C153 50.16 153 100.32 153 152 C102.51 152 52.02 152 0 152 C0 101.84 0 51.68 0 0 Z " fill="#ECDFC7" transform="translate(508,348)"/>
<path d="M0 0 C50.49 0 100.98 0 153 0 C153 50.16 153 100.32 153 152 C102.51 152 52.02 152 0 152 C0 101.84 0 51.68 0 0 Z " fill="#EDCC61" transform="translate(183,348)"/>
<path d="M0 0 C50.16 0 100.32 0 152 0 C152 50.49 152 100.98 152 153 C101.84 153 51.68 153 0 153 C0 102.51 0 52.02 0 0 Z " fill="#F65E3B" transform="translate(346,185)"/>
<path d="M0 0 C50.16 0 100.32 0 152 0 C152 50.49 152 100.98 152 153 C101.84 153 51.68 153 0 153 C0 102.51 0 52.02 0 0 Z " fill="#F67C5F" transform="translate(21,185)"/>
<path d="M0 0 C50.49 0 100.98 0 153 0 C153 50.16 153 100.32 153 152 C102.51 152 52.02 152 0 152 C0 101.84 0 51.68 0 0 Z " fill="#ECDFC7" transform="translate(508,23)"/>
<path d="M0 0 C50.49 0 100.98 0 153 0 C153 50.16 153 100.32 153 152 C102.51 152 52.02 152 0 152 C0 101.84 0 51.68 0 0 Z " fill="#F59563" transform="translate(183,23)"/>
<path d="M0 0 C50.16 0 100.32 0 152 0 C152 50.16 152 100.32 152 152 C101.84 152 51.68 152 0 152 C0 101.84 0 51.68 0 0 Z " fill="#F67C5F" transform="translate(346,348)"/>
<path d="M0 0 C50.16 0 100.32 0 152 0 C152 50.16 152 100.32 152 152 C101.84 152 51.68 152 0 152 C0 101.84 0 51.68 0 0 Z " fill="#F6EADC" transform="translate(21,348)"/>
<path d="M0 0 C50.16 0 100.32 0 152 0 C152 50.16 152 100.32 152 152 C101.84 152 51.68 152 0 152 C0 101.84 0 51.68 0 0 Z " fill="#F2B179" transform="translate(346,23)"/>
<path d="M0 0 C50.16 0 100.32 0 152 0 C152 50.16 152 100.32 152 152 C101.84 152 51.68 152 0 152 C0 101.84 0 51.68 0 0 Z " fill="#ECDFC7" transform="translate(21,23)"/>
<path d="M0 0 C1.25167969 -0.00257813 2.50335938 -0.00515625 3.79296875 -0.0078125 C6.8125 0.125 6.8125 0.125 7.8125 1.125 C7.9104057 2.62238124 7.94224864 4.12442892 7.9375 5.625 C7.94136719 6.84703125 7.94136719 6.84703125 7.9453125 8.09375 C7.8125 10.125 7.8125 10.125 6.8125 11.125 C3.48212553 11.36968057 0.15276286 11.50927005 -3.18359375 11.6484375 C-4.17488281 11.80570313 -5.16617187 11.96296875 -6.1875 12.125 C-7.1775 13.61 -7.1775 13.61 -8.1875 15.125 C-7.61902344 15.07859375 -7.05054688 15.0321875 -6.46484375 14.984375 C-0.43421791 14.70247596 2.95755332 15.45901985 7.8125 19.125 C9.25 21.875 9.25 21.875 9.8125 24.125 C14.44115914 19.90777723 17.66999667 15.11342426 21.0625 9.875 C22.1293563 8.24423394 23.19702088 6.61399628 24.265625 4.984375 C24.73129883 4.26733398 25.19697266 3.55029297 25.67675781 2.81152344 C26.8125 1.125 26.8125 1.125 27.8125 0.125 C29.47679051 0.02676063 31.14531931 -0.00473631 32.8125 0 C34.17375 -0.00386719 34.17375 -0.00386719 35.5625 -0.0078125 C37.8125 0.125 37.8125 0.125 38.8125 1.125 C38.89998207 3.05167507 38.91947334 4.98151861 38.91015625 6.91015625 C38.90693359 8.07998047 38.90371094 9.24980469 38.90039062 10.45507812 C38.88782227 12.30262695 38.88782227 12.30262695 38.875 14.1875 C38.87048828 15.42306641 38.86597656 16.65863281 38.86132812 17.93164062 C38.84949608 20.99614117 38.83301173 24.06054721 38.8125 27.125 C40.0190625 27.0940625 40.0190625 27.0940625 41.25 27.0625 C43.8125 27.125 43.8125 27.125 44.8125 28.125 C44.88429964 29.64428038 44.89642007 31.16667482 44.875 32.6875 C44.86597656 33.51378906 44.85695313 34.34007812 44.84765625 35.19140625 C44.83605469 35.82949219 44.82445312 36.46757812 44.8125 37.125 C42.8325 37.455 40.8525 37.785 38.8125 38.125 C38.833125 39.424375 38.85375 40.72375 38.875 42.0625 C38.89649454 43.41665633 38.88398199 44.77256083 38.8125 46.125 C37.22355928 47.71394072 35.56448576 47.29498411 33.375 47.3125 C32.57191406 47.32667969 31.76882813 47.34085937 30.94140625 47.35546875 C28.8125 47.125 28.8125 47.125 26.8125 45.125 C26.8125 42.815 26.8125 40.505 26.8125 38.125 C20.8725 38.125 14.9325 38.125 8.8125 38.125 C8.1525 39.445 7.4925 40.765 6.8125 42.125 C5 44.875 5 44.875 1.8125 47.125 C-3.9650929 48.00289399 -9.22878741 47.89449423 -14.6875 45.75 C-21.37985017 38.72303232 -22.88243222 31.75928981 -22.70874023 22.3203125 C-22.32706772 14.53036778 -20.52998059 8.99003057 -14.6875 3.625 C-10.07557115 -0.14839633 -5.84248857 -0.01210878 0 0 Z " fill="#FEF8F7" transform="translate(411.1875,239.875)"/>
<path d="M0 0 C3.21985783 2.17357279 5.17345139 4.45405063 6.61328125 8.0078125 C7.61783973 13.60049863 7.08861886 17.96121689 3.98828125 22.7578125 C1.24332899 26.56298442 -2.04502514 29.73164229 -5.38671875 33.0078125 C-4.14535156 32.99621094 -2.90398437 32.98460937 -1.625 32.97265625 C0.01692557 32.96327382 1.65885278 32.9541741 3.30078125 32.9453125 C4.11740234 32.93693359 4.93402344 32.92855469 5.77539062 32.91992188 C9.88340227 32.90329025 13.59234976 33.07990523 17.61328125 34.0078125 C20.31114774 34.17044984 22.90361071 34.09813485 25.61328125 34.0078125 C26.90961746 32.94136135 26.90961746 32.94136135 26.67578125 30.4453125 C26.65515625 29.6409375 26.63453125 28.8365625 26.61328125 28.0078125 C22.73415268 26.71476964 19.35739597 27.07815277 15.3046875 27.265625 C12.09181442 26.95786067 10.80534096 26.36888616 8.61328125 24.0078125 C8.1875 21.73046875 8.1875 21.73046875 8.30078125 19.0703125 C8.33816406 18.10351562 8.37554687 17.13671875 8.4140625 16.140625 C8.51267578 14.58988281 8.51267578 14.58988281 8.61328125 13.0078125 C8.66871094 11.91210938 8.72414062 10.81640625 8.78125 9.6875 C9.31654702 1.30454673 9.31654702 1.30454673 11.61328125 -0.9921875 C14.02758789 -1.23510742 14.02758789 -1.23510742 17.0234375 -1.22265625 C18.09529297 -1.22072266 19.16714844 -1.21878906 20.27148438 -1.21679688 C21.39490234 -1.20455078 22.51832031 -1.19230469 23.67578125 -1.1796875 C25.36670898 -1.1787207 25.36670898 -1.1787207 27.09179688 -1.17773438 C35.47314808 -1.13232067 35.47314808 -1.13232067 36.61328125 0.0078125 C36.71152062 1.67210301 36.74301756 3.34063181 36.73828125 5.0078125 C36.74214844 6.3690625 36.74214844 6.3690625 36.74609375 7.7578125 C36.61328125 10.0078125 36.61328125 10.0078125 35.61328125 11.0078125 C33.08278723 11.08094817 30.58023288 11.10028777 28.05078125 11.0703125 C27.33986328 11.06580078 26.62894531 11.06128906 25.89648438 11.05664062 C24.13538112 11.04482114 22.37432089 11.02688513 20.61328125 11.0078125 C20.61328125 12.3278125 20.61328125 13.6478125 20.61328125 15.0078125 C21.80953125 14.9459375 23.00578125 14.8840625 24.23828125 14.8203125 C29.51622996 14.8296375 32.94037023 16.56097054 36.92578125 20.0078125 C39.92649369 23.56421243 39.96263263 27.13833563 39.8828125 31.59375 C39.34907443 36.37418659 37.67029156 40.13059229 34.09375 43.39453125 C27.28518549 47.62207131 17.30384736 46.95098976 9.71875 45.42578125 C9.02394531 45.28785156 8.32914063 45.14992188 7.61328125 45.0078125 C7.28328125 45.3378125 6.95328125 45.6678125 6.61328125 46.0078125 C4.33380333 46.1080218 2.0512099 46.13862553 -0.23046875 46.140625 C-0.91475952 46.14158173 -1.59905029 46.14253845 -2.30407715 46.14352417 C-3.75333752 46.1442058 -5.20260093 46.14235273 -6.65185547 46.13818359 C-8.87734803 46.13283502 -11.10263876 46.1381291 -13.328125 46.14453125 C-14.73307336 46.14387047 -16.1380216 46.1425893 -17.54296875 46.140625 C-18.83009766 46.13949707 -20.11722656 46.13836914 -21.44335938 46.13720703 C-24.38671875 46.0078125 -24.38671875 46.0078125 -25.38671875 45.0078125 C-26.18072137 40.99244344 -26.32915126 37.43649829 -24.02490234 33.94335938 C-22.12441389 31.93185988 -20.15188507 30.08554834 -18.07421875 28.2578125 C-10.50819229 21.97861166 -10.50819229 21.97861166 -7.19921875 13.1953125 C-7.26109375 12.4734375 -7.32296875 11.7515625 -7.38671875 11.0078125 C-12.40206927 11.33741466 -12.40206927 11.33741466 -16.38671875 14.0078125 C-18.76171875 14.4453125 -18.76171875 14.4453125 -21.38671875 14.0078125 C-24.01313278 11.58874694 -25.27778835 10.09711649 -25.63671875 6.5078125 C-21.14422369 -2.47717762 -8.51620979 -3.54029016 0 0 Z " fill="#FEFCF8" transform="translate(235.38671875,402.9921875)"/>
<path d="M0 0 C2.8125 2.125 2.8125 2.125 4.8125 4.125 C5.078125 6.62109375 5.078125 6.62109375 5.0625 9.5625 C5.07023437 11.01462891 5.07023437 11.01462891 5.078125 12.49609375 C4.8125 15.125 4.8125 15.125 2.8125 18.125 C3.10066641 20.35828964 3.69660757 21.92218825 4.8125 23.875 C6.29272904 27.20551535 6.40239916 30.50732476 6.8125 34.125 C19.04403315 23.47259577 19.04403315 23.47259577 24.8125 9.125 C23.92498047 9.32416016 23.92498047 9.32416016 23.01953125 9.52734375 C21.39118868 9.8912637 19.76086706 10.24641562 18.12890625 10.59375 C15.71542254 11.10543715 15.71542254 11.10543715 13.0625 12.0625 C10.8125 12.125 10.8125 12.125 7.9375 9.9375 C5.8125 7.125 5.8125 7.125 5.9765625 5.12109375 C7.30558815 1.94757924 9.31848901 0.80800099 12.23046875 -0.88671875 C17.85851989 -3.04087448 24.389158 -3.02781773 30.09765625 -1.10546875 C33.50015367 0.70775174 35.80270656 2.88152933 37.8125 6.125 C38.71966555 10.65379543 38.76717503 15.17502546 36.7109375 19.375 C35.19581097 21.44918391 33.5993394 23.28002049 31.8125 25.125 C31.16667969 25.80046875 30.52085938 26.4759375 29.85546875 27.171875 C28.20225498 28.85539207 26.52577435 30.50296511 24.8125 32.125 C26.20275391 32.21587891 26.20275391 32.21587891 27.62109375 32.30859375 C28.81863281 32.39238281 30.01617187 32.47617187 31.25 32.5625 C32.44496094 32.64371094 33.63992187 32.72492188 34.87109375 32.80859375 C37.8125 33.125 37.8125 33.125 38.8125 34.125 C38.91073937 35.78929051 38.94223631 37.45781931 38.9375 39.125 C38.94136719 40.48625 38.94136719 40.48625 38.9453125 41.875 C38.8125 44.125 38.8125 44.125 37.8125 45.125 C33.55501574 45.34309756 29.29204276 45.31079161 25.02954102 45.31030273 C22.88733 45.31248743 20.74563529 45.33063512 18.60351562 45.34960938 C17.2473976 45.35254359 15.89127712 45.3545282 14.53515625 45.35546875 C13.29515869 45.35957764 12.05516113 45.36368652 10.77758789 45.36791992 C7.8125 45.125 7.8125 45.125 5.8125 43.125 C5.41485737 41.13678687 5.07474651 39.13555661 4.8125 37.125 C4.255625 37.888125 3.69875 38.65125 3.125 39.4375 C0.42747534 42.57246109 -1.87603179 44.78082648 -6.10424805 45.41040039 C-8.30661927 45.52813482 -10.48239653 45.53427622 -12.6875 45.5 C-13.43386719 45.51160156 -14.18023437 45.52320313 -14.94921875 45.53515625 C-19.92468373 45.50873785 -23.50890965 44.80359035 -27.1875 41.125 C-27.46064815 35.38888889 -27.46064815 35.38888889 -27.1875 33.125 C-26.5275 32.465 -25.8675 31.805 -25.1875 31.125 C-23.26953125 31.3671875 -23.26953125 31.3671875 -21 32 C-16.43033779 33.14241555 -11.57643062 34.31946531 -7.1875 32.125 C-7.6825 29.65 -7.6825 29.65 -8.1875 27.125 C-9.36119141 27.03412109 -9.36119141 27.03412109 -10.55859375 26.94140625 C-11.57050781 26.85761719 -12.58242187 26.77382813 -13.625 26.6875 C-15.13900391 26.56568359 -15.13900391 26.56568359 -16.68359375 26.44140625 C-19.1875 26.125 -19.1875 26.125 -20.1875 25.125 C-20.2854057 23.62761876 -20.31724864 22.12557108 -20.3125 20.625 C-20.31507812 19.8103125 -20.31765625 18.995625 -20.3203125 18.15625 C-20.1875 16.125 -20.1875 16.125 -19.1875 15.125 C-17.50566052 14.89212992 -15.8162584 14.71235834 -14.125 14.5625 C-12.74634766 14.43681641 -12.74634766 14.43681641 -11.33984375 14.30859375 C-10.62957031 14.24800781 -9.91929688 14.18742187 -9.1875 14.125 C-8.8575 12.475 -8.5275 10.825 -8.1875 9.125 C-12.36713515 8.87829246 -12.36713515 8.87829246 -16.25 10.1875 C-18.1875 11.125 -18.1875 11.125 -20.75 11 C-23.78026574 9.9122123 -24.75095877 8.99808245 -26.1875 6.125 C-26.375 3.5625 -26.375 3.5625 -25.1875 1.125 C-17.94618364 -2.91342643 -7.45973547 -4.16683969 0 0 Z " fill="#FEFAF9" transform="translate(90.1875,241.875)"/>
<path d="M0 0 C3.09313267 1.69602443 4.76975805 3.26010583 6.734375 6.20703125 C7.55151501 11.87395027 6.76795508 15.38088112 3.734375 20.20703125 C4.28218123 22.30534769 4.28218123 22.30534769 5.734375 24.20703125 C8.3972557 28.09893381 9.47820351 30.46512452 8.734375 35.20703125 C6.83686292 39.64299283 4.73055985 42.55646155 0.671875 45.20703125 C-4.36684273 46.91244341 -10.04401101 46.93265063 -15.265625 46.20703125 C-19.48257308 44.07101546 -23.08684728 41.49315135 -25.265625 37.20703125 C-26.20675284 32.14441251 -26.06337537 28.45351621 -23.265625 24.08203125 C-22.605625 23.46328125 -21.945625 22.84453125 -21.265625 22.20703125 C-22.35347468 18.9571999 -22.35347468 18.9571999 -24.265625 16.20703125 C-24.81634008 12.47003604 -25.06139293 8.77875547 -23.32421875 5.34765625 C-17.80904952 -1.63707218 -8.17405067 -2.86091774 0 0 Z " fill="#FEFBF9" transform="translate(593.265625,240.79296875)"/>
<path d="M0 0 C3.09313267 1.69602443 4.76975805 3.26010583 6.734375 6.20703125 C7.55151501 11.87395027 6.76795508 15.38088112 3.734375 20.20703125 C4.28218123 22.30534769 4.28218123 22.30534769 5.734375 24.20703125 C8.3972557 28.09893381 9.47820351 30.46512452 8.734375 35.20703125 C6.83686292 39.64299283 4.73055985 42.55646155 0.671875 45.20703125 C-4.36684273 46.91244341 -10.04401101 46.93265063 -15.265625 46.20703125 C-19.48257308 44.07101546 -23.08684728 41.49315135 -25.265625 37.20703125 C-26.20675284 32.14441251 -26.06337537 28.45351621 -23.265625 24.08203125 C-22.605625 23.46328125 -21.945625 22.84453125 -21.265625 22.20703125 C-22.35347468 18.9571999 -22.35347468 18.9571999 -24.265625 16.20703125 C-24.81634008 12.47003604 -25.06139293 8.77875547 -23.32421875 5.34765625 C-17.80904952 -1.63707218 -8.17405067 -2.86091774 0 0 Z " fill="#FEFBF9" transform="translate(268.265625,240.79296875)"/>
<path d="M0 0 C3.5625 1.25 3.5625 1.25 6 3 C6.78375 3.515625 7.5675 4.03125 8.375 4.5625 C10.95524112 8.43286167 10.31039388 12.48204461 10 17 C9.34 17 8.68 17 8 17 C7.13617572 19.75706416 7.13617572 19.75706416 7 23 C7.639375 23.7425 8.27875 24.485 8.9375 25.25 C11.60600784 28.80801046 11.63735287 31.20297829 11.44921875 35.5625 C10.5213278 40.59731698 7.51551531 42.86336352 3.5 45.875 C-2.46738959 47.79308951 -9.42762785 48.51046608 -15.328125 46.015625 C-18.55550784 43.818835 -20.57560489 41.59052592 -22 38 C-22.69853621 33.00465386 -22.75351846 29.1773726 -20 24.875 C-19.34 24.25625 -18.68 23.6375 -18 23 C-18.309375 22.236875 -18.61875 21.47375 -18.9375 20.6875 C-21.05893683 15.32151272 -22.18996215 10.75570182 -19.8125 5.25 C-14.53961723 -1.29564758 -7.76355187 -0.72355521 0 0 Z " fill="#FEFCFA" transform="translate(428,565)"/>
<path d="M0 0 C3.5625 1.25 3.5625 1.25 6 3 C6.78375 3.515625 7.5675 4.03125 8.375 4.5625 C10.95524112 8.43286167 10.31039388 12.48204461 10 17 C9.34 17 8.68 17 8 17 C7.13617572 19.75706416 7.13617572 19.75706416 7 23 C7.639375 23.7425 8.27875 24.485 8.9375 25.25 C11.60600784 28.80801046 11.63735287 31.20297829 11.44921875 35.5625 C10.5213278 40.59731698 7.51551531 42.86336352 3.5 45.875 C-2.46738959 47.79308951 -9.42762785 48.51046608 -15.328125 46.015625 C-18.55550784 43.818835 -20.57560489 41.59052592 -22 38 C-22.69853621 33.00465386 -22.75351846 29.1773726 -20 24.875 C-19.34 24.25625 -18.68 23.6375 -18 23 C-18.309375 22.236875 -18.61875 21.47375 -18.9375 20.6875 C-21.05893683 15.32151272 -22.18996215 10.75570182 -19.8125 5.25 C-14.53961723 -1.29564758 -7.76355187 -0.72355521 0 0 Z " fill="#FEFCFA" transform="translate(103,565)"/>
<path d="M0 0 C3.32979367 1.80719571 6.14205855 3.80404679 7.765625 7.2421875 C8.18065651 11.10276363 8.00277967 14.5307235 6.765625 18.2421875 C6.105625 18.5721875 5.445625 18.9021875 4.765625 19.2421875 C5.16203763 22.84312213 5.16203763 22.84312213 7.28125 25.609375 C9.77045288 28.34749816 9.23205176 31.19191544 9.11328125 34.734375 C8.59695367 38.45889528 7.30413606 40.50326767 4.765625 43.2421875 C-1.71287064 47.1442209 -7.86436022 47.02902182 -15.234375 46.2421875 C-18.8064848 45.02753956 -20.66589351 42.9054159 -23.109375 40.0546875 C-24.70878889 36.05615278 -24.94222826 32.48930704 -24.234375 28.2421875 C-23.12633013 25.89178928 -21.9001837 24.27239186 -20.234375 22.2421875 C-20.54375 21.6234375 -20.853125 21.0046875 -21.171875 20.3671875 C-23.43457228 15.84179295 -24.0022947 12.31898995 -23.234375 7.2421875 C-18.6603753 -1.44841193 -8.79161795 -2.98177252 0 0 Z " fill="#FEFCFA" transform="translate(430.234375,77.7578125)"/>
<path d="M0 0 C1.24007813 -0.00515625 2.48015625 -0.0103125 3.7578125 -0.015625 C6.875 0.25 6.875 0.25 8.875 2.25 C9.20252234 4.96454956 9.0058425 7.50230759 8.875 10.25 C6.70801761 12.41698239 1.79021136 11.57211799 -1.14453125 11.67578125 C-4.67674531 12.35629956 -5.87292787 13.51806747 -8.125 16.25 C-7.32835937 16.19199219 -6.53171875 16.13398437 -5.7109375 16.07421875 C4.02757725 15.6595618 4.02757725 15.6595618 7.5 18.4375 C11.63381057 23.332802 12.39530888 27.36370317 12.25390625 33.6796875 C11.44020694 39.199421 8.61121306 42.927171 4.25 46.25 C-1.90062484 48.07240736 -7.69931462 48.39668764 -13.5625 45.625 C-18.00890407 41.50394257 -20.95684036 37.32771241 -21.29296875 31.17578125 C-21.34245908 22.02006999 -21.04087127 14.26104948 -16.125 6.25 C-10.85632524 1.38660791 -7.17328894 -0.0299511 0 0 Z " fill="#FEFCFA" transform="translate(280.125,76.75)"/>
<path d="M0 0 C0.69802734 -0.00386719 1.39605469 -0.00773437 2.11523438 -0.01171875 C7.31086006 -0.00163994 7.31086006 -0.00163994 8.4375 1.125 C8.50955511 2.81108966 8.52136068 4.50000659 8.5 6.1875 C8.49097656 7.10660156 8.48195313 8.02570313 8.47265625 8.97265625 C8.46105469 9.68292969 8.44945312 10.39320313 8.4375 11.125 C7.54546875 11.17398437 6.6534375 11.22296875 5.734375 11.2734375 C4.56390625 11.34820312 3.3934375 11.42296875 2.1875 11.5 C0.44726562 11.60441406 0.44726562 11.60441406 -1.328125 11.7109375 C-4.26944334 12.08748308 -6.06199011 12.6024123 -8.5625 14.125 C-8.5625 14.785 -8.5625 15.445 -8.5625 16.125 C-7.91023438 16.09019531 -7.25796875 16.05539062 -6.5859375 16.01953125 C-1.15511899 15.85132006 2.83858913 15.87211183 7.4375 19.125 C11.29286165 24.4427402 12.36331451 29.68590807 11.4375 36.125 C9.26755073 41.3382806 6.57152303 44.64727584 1.4375 47.125 C-4.03687448 47.9428406 -8.99012557 47.82695287 -14.0625 45.5625 C-19.05721931 40.69264867 -21.67957166 35.32919144 -21.85546875 28.36083984 C-21.92897681 19.71077844 -21.8973666 12.63120521 -15.5859375 6.0703125 C-10.25185683 1.24054491 -7.19302238 -0.04007255 0 0 Z " fill="#FEFDFB" transform="translate(297.5625,401.875)"/>
<path d="M0 0 C2.92745148 2.43549387 4.29266013 4.10844913 5.5078125 7.75390625 C5.73805055 11.74469913 5.55279019 14.61423868 4.3203125 18.44140625 C4.0521875 19.53453125 3.7840625 20.62765625 3.5078125 21.75390625 C4.21357422 22.69363281 4.21357422 22.69363281 4.93359375 23.65234375 C7.66197086 27.29469333 7.02571686 31.3907394 6.5078125 35.75390625 C4.78069068 39.93535909 2.18673639 42.17865953 -1.4921875 44.75390625 C-5.09100756 45.95351294 -8.07356732 45.92277354 -11.8671875 45.94140625 C-13.17429687 45.95558594 -14.48140625 45.96976562 -15.828125 45.984375 C-20.39309526 45.69723934 -23.24218463 45.00390912 -26.4921875 41.75390625 C-26.76210656 39.0655124 -26.57956107 36.46248689 -26.4921875 33.75390625 C-21.7421875 32.62890625 -21.7421875 32.62890625 -19.4921875 33.75390625 C-17.2878235 33.98340944 -15.07826577 34.16466558 -12.8671875 34.31640625 C-11.67867188 34.40019531 -10.49015625 34.48398437 -9.265625 34.5703125 C-7.89277344 34.66119141 -7.89277344 34.66119141 -6.4921875 34.75390625 C-6.4921875 33.10390625 -6.4921875 31.45390625 -6.4921875 29.75390625 C-9.19868019 28.06234832 -11.5583008 27.53884965 -14.6796875 27.19140625 C-18.4921875 26.75390625 -18.4921875 26.75390625 -19.4921875 25.75390625 C-19.5900932 24.25652501 -19.62193614 22.75447733 -19.6171875 21.25390625 C-19.61976563 20.43921875 -19.62234375 19.62453125 -19.625 18.78515625 C-19.4921875 16.75390625 -19.4921875 16.75390625 -18.4921875 15.75390625 C-16.47624168 15.51962847 -14.4537135 15.34054501 -12.4296875 15.19140625 C-10.77259766 15.06572266 -10.77259766 15.06572266 -9.08203125 14.9375 C-8.22738281 14.87691406 -7.37273437 14.81632812 -6.4921875 14.75390625 C-6.8221875 13.43390625 -7.1521875 12.11390625 -7.4921875 10.75390625 C-12.81389244 10.45828258 -12.81389244 10.45828258 -17.4921875 12.75390625 C-20.63669174 12.59668104 -22.05298936 12.16382452 -24.3671875 10.00390625 C-25.4921875 7.75390625 -25.4921875 7.75390625 -25.6171875 5.25390625 C-24.30324908 2.33404309 -22.84606203 0.93490524 -19.984375 -0.5078125 C-13.74825516 -2.35518969 -5.92548931 -2.96274466 0 0 Z " fill="#FEFAF9" transform="translate(414.4921875,403.24609375)"/>
<path d="M0 0 C3.31667407 2.02824179 5.44747716 4.70658353 6.87109375 8.265625 C7.87588786 14.74096479 6.66293454 19.94246388 2.87109375 25.265625 C0.33676112 28.08531188 -2.32931635 30.71065946 -5.12890625 33.265625 C-4.28585937 33.31460938 -3.4428125 33.36359375 -2.57421875 33.4140625 C-1.47851562 33.48882812 -0.3828125 33.56359375 0.74609375 33.640625 C1.83664062 33.71023438 2.9271875 33.77984375 4.05078125 33.8515625 C6.87109375 34.265625 6.87109375 34.265625 8.87109375 36.265625 C9.13671875 38.140625 9.13671875 38.140625 9.12109375 40.265625 C9.12882812 41.3175 9.12882812 41.3175 9.13671875 42.390625 C8.87109375 44.265625 8.87109375 44.265625 6.87109375 46.265625 C3.81420898 46.50854492 3.81420898 46.50854492 -0.0703125 46.49609375 C-0.75318832 46.49563553 -1.43606415 46.49517731 -2.13963318 46.4947052 C-3.58293394 46.49168391 -5.02623147 46.48380122 -6.46948242 46.47143555 C-8.68615178 46.4531683 -10.90240383 46.45092593 -13.11914062 46.45117188 C-23.98148157 46.41304968 -23.98148157 46.41304968 -25.12890625 45.265625 C-25.70395372 42.04535916 -25.93703453 40.36170088 -25.12890625 37.265625 C-23.16607167 34.78765737 -20.99900398 32.77303574 -18.65625 30.65234375 C-15.26595386 27.4506885 -12.55788513 23.85317878 -9.7578125 20.13671875 C-9.22027344 19.51925781 -8.68273437 18.90179688 -8.12890625 18.265625 C-7.46890625 18.265625 -6.80890625 18.265625 -6.12890625 18.265625 C-6.45890625 15.955625 -6.78890625 13.645625 -7.12890625 11.265625 C-12.14425677 11.59522716 -12.14425677 11.59522716 -16.12890625 14.265625 C-18.85715802 14.05575948 -20.64786966 13.5807869 -22.94140625 12.078125 C-24.12890625 10.265625 -24.12890625 10.265625 -24.81640625 7.390625 C-24.06160409 3.95970607 -23.69924526 3.42222956 -21.00390625 1.390625 C-14.84048555 -2.01026249 -6.63107992 -2.2874184 0 0 Z " fill="#FEF9F8" transform="translate(446.12890625,402.734375)"/>
<path d="M0 0 C1.55906782 1.55906782 1.12722371 3.06154281 1.12939453 5.22851562 C1.13254669 6.12614624 1.13569885 7.02377686 1.13894653 7.9486084 C1.1369223 8.92463013 1.13489807 9.90065186 1.1328125 10.90625 C1.13424759 12.3988031 1.13424759 12.3988031 1.13571167 13.92150879 C1.1363936 16.02986718 1.13453844 18.13822765 1.13037109 20.24658203 C1.12502303 23.48605027 1.13031567 26.72537985 1.13671875 29.96484375 C1.13605797 32.00781281 1.13477681 34.05078178 1.1328125 36.09375 C1.13483673 37.06977173 1.13686096 38.04579346 1.13894653 39.0513916 C1.13579437 39.94902222 1.13264221 40.84665283 1.12939453 41.77148438 C1.12859894 42.56566772 1.12780334 43.35985107 1.12698364 44.17810059 C1 46 1 46 0 47 C-1.66429051 47.09823937 -3.33281931 47.12973631 -5 47.125 C-6.36125 47.12886719 -6.36125 47.12886719 -7.75 47.1328125 C-10 47 -10 47 -11 46 C-11.08775605 43.85441173 -11.10695219 41.70595579 -11.09765625 39.55859375 C-11.09443359 38.25341797 -11.09121094 36.94824219 -11.08789062 35.60351562 C-11.07953401 34.2148431 -11.07106905 32.82617123 -11.0625 31.4375 C-11.05748666 30.04492344 -11.05292347 28.65234519 -11.04882812 27.25976562 C-11.03699434 23.8398013 -11.0205088 20.41992156 -11 17 C-11.99 17.66 -12.98 18.32 -14 19 C-16.80239987 18.78982001 -18.53434881 18.31043413 -20.875 16.75 C-22 15 -22 15 -21.9140625 12.72265625 C-20.6805738 9.04854675 -18.41161522 7.0804685 -15.5 4.6875 C-14.96334717 4.24108154 -14.42669434 3.79466309 -13.8737793 3.3347168 C-9.00050649 -0.46123764 -5.97239392 -1.07698907 0 0 Z " fill="#FEFCFB" transform="translate(250,77)"/>
<path d="M0 0 C2.31 0 4.62 0 7 0 C7 8.91 7 17.82 7 27 C8.65 27 10.3 27 12 27 C12 28.98 12 30.96 12 33 C10.35 33 8.7 33 7 33 C7 35.64 7 38.28 7 41 C4.69 41 2.38 41 0 41 C0 38.36 0 35.72 0 33 C-5.94 33 -11.88 33 -18 33 C-18 25.92584297 -17.95192584 25.07419831 -14.0625 19.875 C-13.23173064 18.75490056 -12.40234499 17.63377374 -11.57421875 16.51171875 C-11.1467334 15.9398584 -10.71924805 15.36799805 -10.27880859 14.77880859 C-8.98800547 12.98331574 -7.80924224 11.14887317 -6.64453125 9.26953125 C-6.26353271 8.66963379 -5.88253418 8.06973633 -5.48999023 7.45166016 C-4.42739509 5.77040057 -3.3812207 4.07879596 -2.3359375 2.38671875 C-1.56507813 1.59910156 -0.79421875 0.81148438 0 0 Z " fill="#82786E" transform="translate(588,405)"/>
<path d="M0 0 C2.31 0 4.62 0 7 0 C7 8.91 7 17.82 7 27 C8.65 27 10.3 27 12 27 C12 28.98 12 30.96 12 33 C10.35 33 8.7 33 7 33 C7 35.64 7 38.28 7 41 C4.69 41 2.38 41 0 41 C0 38.36 0 35.72 0 33 C-5.94 33 -11.88 33 -18 33 C-18 25.92584297 -17.95192584 25.07419831 -14.0625 19.875 C-13.23173064 18.75490056 -12.40234499 17.63377374 -11.57421875 16.51171875 C-11.1467334 15.9398584 -10.71924805 15.36799805 -10.27880859 14.77880859 C-8.98800547 12.98331574 -7.80924224 11.14887317 -6.64453125 9.26953125 C-6.26353271 8.66963379 -5.88253418 8.06973633 -5.48999023 7.45166016 C-4.42739509 5.77040057 -3.3812207 4.07879596 -2.3359375 2.38671875 C-1.56507813 1.59910156 -0.79421875 0.81148438 0 0 Z " fill="#82786E" transform="translate(588,80)"/>
<path d="M0 0 C2.31 0 4.62 0 7 0 C7 8.91 7 17.82 7 27 C8.65 27 10.3 27 12 27 C12 28.65 12 30.3 12 32 C10.35 32 8.7 32 7 32 C7 34.97 7 37.94 7 41 C5.02 41 3.04 41 1 41 C1 38.03 1 35.06 1 32 C-5.27 32 -11.54 32 -18 32 C-16.87990095 24.15930664 -16.87990095 24.15930664 -14.0625 20.5 C-11.73656214 17.4146697 -9.55552039 14.32842545 -7.55859375 11.0234375 C-7.13505615 10.33830078 -6.71151855 9.65316406 -6.27514648 8.94726562 C-5.43686076 7.58495101 -4.61666766 6.21130597 -3.81665039 4.82617188 C-2.625 2.9296875 -2.625 2.9296875 0 0 Z " fill="#7C7269" transform="translate(100,80)"/>
<path d="M0 0 C2.89944563 2.07440013 4.3454618 3.86523413 5.3359375 7.30859375 C5.75750055 12.31270334 4.7261239 15.55481763 1.734375 19.5625 C-2.37312164 24.27602073 -6.84102025 28.65096001 -11.328125 33 C-5.388125 33.33 0.551875 33.66 6.671875 34 C6.671875 35.98 6.671875 37.96 6.671875 40 C-2.568125 40 -11.808125 40 -21.328125 40 C-21.328125 34 -21.328125 34 -20.10644531 32.12890625 C-19.54538086 31.61199219 -18.98431641 31.09507812 -18.40625 30.5625 C-17.79265625 29.97726562 -17.1790625 29.39203125 -16.546875 28.7890625 C-15.8971875 28.19867188 -15.2475 27.60828125 -14.578125 27 C-6.52967784 19.92830751 -6.52967784 19.92830751 -2.890625 10.25 C-3.035 9.1775 -3.179375 8.105 -3.328125 7 C-6.19815222 4.64273493 -6.19815222 4.64273493 -9.703125 5.25 C-12.81453122 5.89373922 -15.44735354 6.69055843 -18.328125 8 C-19.828125 6.625 -19.828125 6.625 -21.328125 5 C-21.328125 4.34 -21.328125 3.68 -21.328125 3 C-14.94644006 -1.64122541 -7.50672991 -3.22436721 0 0 Z " fill="#80776E" transform="translate(105.328125,406)"/>
<path d="M0 0 C0.66 0.33 1.32 0.66 2 1 C2 1.66 2 2.32 2 3 C2.639375 3.268125 3.27875 3.53625 3.9375 3.8125 C6 5 6 5 7 8 C7.44695767 13.9221891 6.48451357 17.86148766 2.75439453 22.57348633 C1.34810586 24.16666793 -0.09404303 25.71400558 -1.5625 27.25 C-2.05685547 27.77851562 -2.55121094 28.30703125 -3.06054688 28.8515625 C-5.01108034 30.93142768 -6.98373876 32.98373876 -9 35 C-3.06 35.33 2.88 35.66 9 36 C9 37.98 9 39.96 9 42 C-0.24 42 -9.48 42 -19 42 C-19 36 -19 36 -17.6706543 34.00537109 C-17.06133057 33.43383301 -16.45200684 32.86229492 -15.82421875 32.2734375 C-15.16099609 31.6340625 -14.49777344 30.9946875 -13.81445312 30.3359375 C-13.11255859 29.68882812 -12.41066406 29.04171875 -11.6875 28.375 C-10.31440505 27.07241879 -8.94324444 25.76779488 -7.57421875 24.4609375 C-6.96151123 23.89165527 -6.34880371 23.32237305 -5.7175293 22.73583984 C-2.21030268 19.22829952 -2.21030268 19.22829952 -0.671875 14.67578125 C-0.69765625 13.89589844 -0.7234375 13.11601563 -0.75 12.3125 C-0.76546875 11.52488281 -0.7809375 10.73726562 -0.796875 9.92578125 C-0.79650946 7.99381251 -0.79650946 7.99381251 -2 7 C-4.06772734 6.80058132 -4.06772734 6.80058132 -6.4375 6.8125 C-7.24058594 6.79832031 -8.04367187 6.78414062 -8.87109375 6.76953125 C-11.21630633 6.79837644 -11.21630633 6.79837644 -13 9 C-15.125 8.625 -15.125 8.625 -17 8 C-17.33 6.68 -17.66 5.36 -18 4 C-11.84651037 0.35348762 -7.15348642 -0.81108303 0 0 Z " fill="#81786E" transform="translate(590,567)"/>
<path d="M0 0 C0.66 0.33 1.32 0.66 2 1 C2 1.66 2 2.32 2 3 C2.639375 3.268125 3.27875 3.53625 3.9375 3.8125 C6 5 6 5 7 8 C7.44695767 13.9221891 6.48451357 17.86148766 2.75439453 22.57348633 C1.34810586 24.16666793 -0.09404303 25.71400558 -1.5625 27.25 C-2.05685547 27.77851562 -2.55121094 28.30703125 -3.06054688 28.8515625 C-5.01108034 30.93142768 -6.98373876 32.98373876 -9 35 C-3.06 35.33 2.88 35.66 9 36 C9 37.98 9 39.96 9 42 C-0.24 42 -9.48 42 -19 42 C-19 36 -19 36 -17.6706543 34.00537109 C-17.06133057 33.43383301 -16.45200684 32.86229492 -15.82421875 32.2734375 C-15.16099609 31.6340625 -14.49777344 30.9946875 -13.81445312 30.3359375 C-13.11255859 29.68882812 -12.41066406 29.04171875 -11.6875 28.375 C-10.31440505 27.07241879 -8.94324444 25.76779488 -7.57421875 24.4609375 C-6.96151123 23.89165527 -6.34880371 23.32237305 -5.7175293 22.73583984 C-2.21030268 19.22829952 -2.21030268 19.22829952 -0.671875 14.67578125 C-0.69765625 13.89589844 -0.7234375 13.11601563 -0.75 12.3125 C-0.76546875 11.52488281 -0.7809375 10.73726562 -0.796875 9.92578125 C-0.79650946 7.99381251 -0.79650946 7.99381251 -2 7 C-4.06772734 6.80058132 -4.06772734 6.80058132 -6.4375 6.8125 C-7.24058594 6.79832031 -8.04367187 6.78414062 -8.87109375 6.76953125 C-11.21630633 6.79837644 -11.21630633 6.79837644 -13 9 C-15.125 8.625 -15.125 8.625 -17 8 C-17.33 6.68 -17.66 5.36 -18 4 C-11.84651037 0.35348762 -7.15348642 -0.81108303 0 0 Z " fill="#81786E" transform="translate(265,567)"/>
<path d="M0 0 C0.28875 0.94875 0.5775 1.8975 0.875 2.875 C1.76825109 6.05211578 1.76825109 6.05211578 4 8 C6.68271031 7.71760944 8.64474665 7.19983001 11 5.875 C13.64977777 4.71572222 15.26937322 5.24149256 18 6 C18 8.31 18 10.62 18 13 C17.34 13 16.68 13 16 13 C15.73646729 13.58934326 15.47293457 14.17868652 15.20141602 14.78588867 C13.95051941 17.09118867 12.63716954 18.58804927 10.77734375 20.42578125 C9.84631836 21.37420898 9.84631836 21.37420898 8.89648438 22.34179688 C7.59438936 23.65168109 6.28449289 24.95385782 4.96679688 26.24804688 C0.86408506 30.46175817 -0.86932419 33.05809414 -1 39 C-3.11882267 35.51017442 -3.11882267 35.51017442 -2.57421875 33.171875 C-2.38472656 32.45515625 -2.19523437 31.7384375 -2 31 C-1.86141796 29.33701556 -1.78052078 27.66846957 -1.75 26 C-1.72421875 25.154375 -1.6984375 24.30875 -1.671875 23.4375 C-2.06512484 20.51621549 -3.24663641 19.30756025 -5 17 C-4.40059529 14.64848923 -3.72166191 12.31691454 -3 10 C-2.82271663 6.9909741 -2.87711844 4.01059817 -3 1 C-1 0 -1 0 0 0 Z " fill="#F6866B" transform="translate(422,408)"/>
<path d="M0 0 C0.886875 0.845625 1.77375 1.69125 2.6875 2.5625 C5.30028533 4.78998868 5.30028533 4.78998868 8.75 4.875 C10.98745725 4.04486444 10.98745725 4.04486444 13 3 C15.3329866 2.95977609 17.66706666 2.95679753 20 3 C20.49440598 9.33572104 18.40344196 11.65659247 14.44140625 16.3203125 C10.450726 20.70048315 6.37074023 24.99561811 2 29 C1.67 29 1.34 29 1 29 C0.87882812 28.15695312 0.75765625 27.31390625 0.6328125 26.4453125 C0.46523437 25.34960938 0.29765625 24.25390625 0.125 23.125 C-0.03742188 22.03445313 -0.19984375 20.94390625 -0.3671875 19.8203125 C-0.76256513 16.88067286 -0.76256513 16.88067286 -3 15 C-2.44444444 10.44444444 -2.44444444 10.44444444 -1 9 C-0.76807135 7.48530552 -0.58784762 5.96245438 -0.4375 4.4375 C-0.35371094 3.61121094 -0.26992187 2.78492188 -0.18359375 1.93359375 C-0.12300781 1.29550781 -0.06242187 0.65742188 0 0 Z " fill="#F68469" transform="translate(95,248)"/>
<path d="M0 0 C0.33 0 0.66 0 1 0 C1 6.27 1 12.54 1 19 C-2.96 19 -6.92 19 -11 19 C-9.68477288 15.7119322 -8.70807035 13.30678356 -6.87109375 10.44921875 C-6.27844727 9.52592773 -6.27844727 9.52592773 -5.67382812 8.58398438 C-5.26583984 7.95814453 -4.85785156 7.33230469 -4.4375 6.6875 C-4.02564453 6.04232422 -3.61378906 5.39714844 -3.18945312 4.73242188 C-2.15659145 3.13495169 -1.08192254 1.56465902 0 0 Z " fill="#E0D4BD" transform="translate(100,88)"/>
<path d="M0 0 C0.33 0 0.66 0 1 0 C1 5.61 1 11.22 1 17 C-2.96 17 -6.92 17 -11 17 C-9.18559561 13.37119122 -7.19436796 10.17527422 -4.9375 6.8125 C-4.22464844 5.74644531 -3.51179687 4.68039062 -2.77734375 3.58203125 C-1 1 -1 1 0 0 Z " fill="#E3D7C0" transform="translate(587,415)"/>
<path d="M0 0 C0.33 0 0.66 0 1 0 C1 5.61 1 11.22 1 17 C-2.96 17 -6.92 17 -11 17 C-9.18559561 13.37119122 -7.19436796 10.17527422 -4.9375 6.8125 C-4.22464844 5.74644531 -3.51179687 4.68039063 -2.77734375 3.58203125 C-1 1 -1 1 0 0 Z " fill="#E3D7C0" transform="translate(587,90)"/>
<path d="M0 0 C2.5 0.25 2.5 0.25 4.5 2.25 C4.83333333 7.58333333 4.83333333 7.58333333 3.5 10.25 C0.625 10.4375 0.625 10.4375 -2.5 10.25 C-4.64915785 7.02626323 -4.88286803 5.98296326 -4.5 2.25 C-2.5 0.25 -2.5 0.25 0 0 Z " fill="#EED06E" transform="translate(292.5,427.75)"/>
<path d="M0 0 C2.5 0.25 2.5 0.25 4.5 2.25 C4.83333333 7.58333333 4.83333333 7.58333333 3.5 10.25 C0.625 10.4375 0.625 10.4375 -2.5 10.25 C-4.64915785 7.02626323 -4.88286803 5.98296326 -4.5 2.25 C-2.5 0.25 -2.5 0.25 0 0 Z " fill="#F59E70" transform="translate(275.5,102.75)"/>
<path d="M0 0 C1 1 1 1 1.1875 4.4375 C1 8 1 8 -1 10 C-4.29714793 9.67028521 -5.6226839 9.3773161 -8 7 C-8.3125 4.5 -8.3125 4.5 -8 2 C-4.77786243 -0.14809171 -3.72224599 -0.29386153 0 0 Z " fill="#F66B4B" transform="translate(409,266)"/>
<path d="M0 0 C3.01305957 0.38878188 4.39685311 1.26456874 7 3 C6.67 4.65 6.34 6.3 6 8 C3.66705225 8.04241723 1.33297433 8.04092937 -1 8 C-2 7 -2 7 -2.1875 4.5625 C-2 2 -2 2 0 0 Z " fill="#F3B886" transform="translate(420,593)"/>
<path d="M0 0 C3.01305957 0.38878188 4.39685311 1.26456874 7 3 C6.67 4.65 6.34 6.3 6 8 C3.66705225 8.04241723 1.33297433 8.04092937 -1 8 C-2 7 -2 7 -2.1875 4.5625 C-2 2 -2 2 0 0 Z " fill="#F3B886" transform="translate(95,593)"/>
<path d="M0 0 C3.29714793 0.32971479 4.6226839 0.6226839 7 3 C6.625 5.625 6.625 5.625 6 8 C3.66705225 8.04241723 1.33297433 8.04092937 -1 8 C-2 7 -2 7 -2.1875 4.5625 C-2 2 -2 2 0 0 Z " fill="#F3B987" transform="translate(420,106)"/>
<path d="M0 0 C0 0.66 0 1.32 0 2 C0.99 2.33 1.98 2.66 3 3 C2.67 4.65 2.34 6.3 2 8 C-0.31 8 -2.62 8 -5 8 C-5.6875 5.6875 -5.6875 5.6875 -6 3 C-4.0819994 0.21889913 -3.45555657 0 0 0 Z " fill="#F3B885" transform="translate(586,268)"/>
<path d="M0 0 C0 0.66 0 1.32 0 2 C0.99 2.33 1.98 2.66 3 3 C2.67 4.65 2.34 6.3 2 8 C-0.31 8 -2.62 8 -5 8 C-5.6875 5.6875 -5.6875 5.6875 -6 3 C-4.0819994 0.21889913 -3.45555657 0 0 0 Z " fill="#F3B885" transform="translate(261,268)"/>
<path d="M0 0 C1.2065625 0.0309375 1.2065625 0.0309375 2.4375 0.0625 C3.0625 1.9375 3.0625 1.9375 3.4375 4.0625 C2.7775 4.7225 2.1175 5.3825 1.4375 6.0625 C-0.6875 5.6875 -0.6875 5.6875 -2.5625 5.0625 C-3.125 3.125 -3.125 3.125 -3.5625 1.0625 C-2.5625 0.0625 -2.5625 0.0625 0 0 Z " fill="#F4BE90" transform="translate(422.5625,574.9375)"/>
<path d="M0 0 C1.2065625 0.0309375 1.2065625 0.0309375 2.4375 0.0625 C3.0625 1.9375 3.0625 1.9375 3.4375 4.0625 C2.7775 4.7225 2.1175 5.3825 1.4375 6.0625 C-0.6875 5.6875 -0.6875 5.6875 -2.5625 5.0625 C-3.125 3.125 -3.125 3.125 -3.5625 1.0625 C-2.5625 0.0625 -2.5625 0.0625 0 0 Z " fill="#F4BE90" transform="translate(97.5625,574.9375)"/>
<path d="M0 0 C1.65 0 3.3 0 5 0 C5.33 1.65 5.66 3.3 6 5 C4.125 5.625 4.125 5.625 2 6 C1.34 5.34 0.68 4.68 0 4 C0 2.68 0 1.36 0 0 Z " fill="#F3BB8A" transform="translate(582,250)"/>
<path d="M0 0 C1.65 0 3.3 0 5 0 C5.33 1.65 5.66 3.3 6 5 C4.125 5.625 4.125 5.625 2 6 C1.34 5.34 0.68 4.68 0 4 C0 2.68 0 1.36 0 0 Z " fill="#F3BB8A" transform="translate(257,250)"/>
<path d="M0 0 C1.98 0 3.96 0 6 0 C6 1.32 6 2.64 6 4 C3 5 3 5 0 4 C0 2.68 0 1.36 0 0 Z " fill="#F3BA89" transform="translate(419,88)"/>
</svg>
